<?xml version="1.0" encoding="UTF-8" standalone="no"?>
<svg
   xmlns:dc="http://purl.org/dc/elements/1.1/"
   xmlns:cc="http://creativecommons.org/ns#"
   xmlns:rdf="http://www.w3.org/1999/02/22-rdf-syntax-ns#"
   xmlns:svg="http://www.w3.org/2000/svg"
   xmlns="http://www.w3.org/2000/svg"
   xmlns:sodipodi="http://sodipodi.sourceforge.net/DTD/sodipodi-0.dtd"
   xmlns:inkscape="http://www.inkscape.org/namespaces/inkscape"
   width="168.71193mm"
   height="197.32777mm"
   viewBox="0 0 168.71193 197.32777"
   version="1.1"
   id="svg8"
   sodipodi:docname="DruinkLogo_ver4_white.svg"
   inkscape:version="1.0rc1 (09960d6f05, 2020-04-09)">
  <defs
     id="defs2" />
  <sodipodi:namedview
     id="base"
     pagecolor="#ffffff"
     bordercolor="#666666"
     borderopacity="1.0"
     inkscape:pageopacity="0.0"
     inkscape:pageshadow="2"
     inkscape:zoom="1"
     inkscape:cx="515.06102"
     inkscape:cy="349.8356"
     inkscape:document-units="mm"
     inkscape:current-layer="layer1"
     inkscape:document-rotation="0"
     showgrid="false"
     inkscape:window-width="1920"
     inkscape:window-height="1142"
     inkscape:window-x="1920"
     inkscape:window-y="28"
     inkscape:window-maximized="1"
     showguides="false"
     inkscape:pagecheckerboard="true" />
  <metadata
     id="metadata5">
    <rdf:RDF>
      <cc:Work
         rdf:about="">
        <dc:format>image/svg+xml</dc:format>
        <dc:type
           rdf:resource="http://purl.org/dc/dcmitype/StillImage" />
        <dc:title></dc:title>
      </cc:Work>
    </rdf:RDF>
  </metadata>
  <g
     transform="translate(-17.528381,-24.227171)"
     inkscape:label="Layer 1"
     inkscape:groupmode="layer"
     id="layer1">
    <path
       inkscape:connector-curvature="0"
       transform="scale(0.26458333)"
       d="m 210.35742,195.97656 c -2.6702,-0.0646 -5.39849,0.51883 -7.95312,1.82422 -8.17481,4.17724 -11.39208,14.12011 -7.21485,22.29492 l 27.13282,53.10157 h -61.42774 c -12.98337,0 -23.43555,10.45217 -23.43555,23.43554 v 473.28711 h -12.73242 c -7.71899,0 -13.93359,6.21459 -13.93359,13.9336 v 39.58789 c 0,7.719 6.2146,13.93164 13.93359,13.93164 h 394.86328 c 7.71901,0 13.9336,-6.21264 13.9336,-13.93164 v -39.58789 c 0,-7.71901 -6.21459,-13.9336 -13.9336,-13.9336 H 506.85547 V 629.01953 a 122.33552,171.46928 0 0 0 74.70898,35.68945 122.33552,171.46928 0 0 0 122.33594,-171.46875 122.33552,171.46928 0 0 0 -122.33594,-171.46875 122.33552,171.46928 0 0 0 -0.15429,0 122.33552,171.46928 0 0 0 -74.55469,35.68946 v -60.82813 c 0,-12.98337 -10.45219,-23.43554 -23.43555,-23.43554 h -223.8789 l -34.83985,-68.18165 c -2.87185,-5.62018 -8.4693,-8.8969 -14.34375,-9.03906 z m 0.16016,142.85938 h 25.32617 c 9.3211,0 16.82617,7.50312 16.82617,16.82422 v 368.21093 c 0,9.32111 -7.50507,16.82422 -16.82617,16.82422 h -25.32617 c -9.3211,0 -16.82617,-7.50311 -16.82617,-16.82422 V 355.66016 c 0,-9.3211 7.50507,-16.82422 16.82617,-16.82422 z m 98.97656,0 h 25.32617 c 9.3211,0 16.82617,7.50312 16.82617,16.82422 v 368.21093 c 0,9.32111 -7.50507,16.82422 -16.82617,16.82422 h -25.32617 c -9.3211,0 -16.82422,-7.50311 -16.82422,-16.82422 V 355.66016 c 0,-9.3211 7.50312,-16.82422 16.82422,-16.82422 z m 98.97656,0 h 25.32813 c 9.32107,0 16.82422,7.50507 16.82422,16.82617 v 368.20898 c 0,9.32111 -7.50315,16.82422 -16.82422,16.82422 H 408.4707 c -9.32111,0 -16.82422,-7.50311 -16.82422,-16.82422 V 355.66211 c 0,-9.3211 7.50311,-16.82617 16.82422,-16.82617 z m 165.08594,17.76562 a 97.484587,136.63743 0 0 1 97.48242,136.63867 97.484587,136.63743 0 0 1 -97.48242,136.63672 97.484587,136.63743 0 0 1 -66.70117,-36.99414 V 393.59375 a 97.484587,136.63743 0 0 1 66.70117,-36.99219 z"
       style="fill:#ffffff;fill-rule:evenodd;stroke:none;stroke-width:0.996385"
       id="rect12" />
    <path
       inkscape:connector-curvature="0"
       id="path1790"
       d="M 41.492581,28.839652 38.326965,57.644134 65.443168,43.788059 Z"
       style="fill:#ffffff;stroke:none;stroke-width:0.309289px;stroke-linecap:butt;stroke-linejoin:miter;stroke-opacity:1" />
    <path
       inkscape:connector-curvature="0"
       id="path1794"
       d="M 35.291335,58.500649 17.528381,61.943409 38.45695,29.696166 Z"
       style="fill:#ffffff;stroke:none;stroke-width:0.309289px;stroke-linecap:butt;stroke-linejoin:miter;stroke-opacity:1" />
    <path
       inkscape:connector-curvature="0"
       id="path1796"
       d="M 67.365029,42.11135 76.257093,26.692848 43.414441,27.162944 Z"
       style="fill:#ffffff;stroke:none;stroke-width:0.309289px;stroke-linecap:butt;stroke-linejoin:miter;stroke-opacity:1" />
    <ellipse
       transform="rotate(-27.066524)"
       ry="1.9949746"
       rx="1.9955269"
       cy="41.568512"
       cx="23.720951"
       id="path1798"
       style="fill:#ffffff;stroke:none;stroke-width:0.309289" />
  </g>
</svg>
