<svg xmlns="http://www.w3.org/2000/svg" xmlns:xlink="http://www.w3.org/1999/xlink" version="1.1" x="0px" y="0px" viewBox="0 0 48 60" style="enable-background:new 0 0 48 48;" xml:space="preserve"><g><path d="M9,18c0,7.98,13.63,25.85,14.21,26.61C23.4,44.85,23.69,45,24,45s0.6-0.15,0.79-0.39C25.37,43.85,39,25.98,39,18   c0-8.27-6.73-15-15-15S9,9.73,9,18z M37,18c0,6.27-10.06,20.36-13,24.33C21.06,38.36,11,24.27,11,18c0-7.17,5.83-13,13-13   S37,10.83,37,18z"/><path d="M14,18c0,5.51,4.49,10,10,10s10-4.49,10-10S29.51,8,24,8S14,12.49,14,18z M32,18c0,4.41-3.59,8-8,8s-8-3.59-8-8s3.59-8,8-8   S32,13.59,32,18z"/></g><text x="0" y="63" fill="#000000" font-size="5px" font-weight="bold" font-family="'Helvetica Neue', Helvetica, Arial-Unicode, Arial, Sans-serif">Created by businessicons13</text><text x="0" y="68" fill="#000000" font-size="5px" font-weight="bold" font-family="'Helvetica Neue', Helvetica, Arial-Unicode, Arial, Sans-serif">from the Noun Project</text></svg>